<?xml version="1.0" encoding="UTF-8"?>
<svg width="656px" height="665px" viewBox="0 0 656 665" version="1.1" xmlns="http://www.w3.org/2000/svg" xmlns:xlink="http://www.w3.org/1999/xlink">
    <!-- Generator: Sketch 52.6 (67491) - http://www.bohemiancoding.com/sketch -->
    <title>Untitled</title>
    <desc>Created with Sketch.</desc>
    <g id="Page-1" stroke="none" stroke-width="1" fill="none" fill-rule="evenodd">
        <g id="app-warm" transform="translate(20.000000, 20.000000)" stroke="#FFFFFF" stroke-width="40">
            <path d="M308,625 C478.103703,625 616,485.088984 616,312.5 C616,139.911016 478.103703,0 308,0 C137.896297,0 0,139.911016 0,312.5 C0,485.088984 137.896297,625 308,625 Z" id="Oval"></path>
        </g>
        <g id="broom" transform="translate(304.552559, 344.000000) rotate(30.000000) translate(-304.552559, -344.000000) translate(119.052559, 133.000000)">
            <g id="Group" transform="translate(9.500000, 7.133975)">
                <path d="M320.205127,10.6921841 L234.942964,168.422049 C246.593774,170.130478 257.333258,175.858549 264.150495,186.218718 L350.230598,26.9931724 C361.974795,5.29290482 332.416258,-11.8945308 320.205127,10.6921841 Z" id="Path"></path>
                <path d="M173.449356,202.44879 C166.161964,210.655694 157.103443,218.956079 147.020887,227.027598 L257.658502,300.686658 C260.904498,287.567216 263.847794,274.286601 266.227548,261.492727 L173.449356,202.44879 Z" id="Path"></path>
                <path d="M183.135823,189.983708 C180.427605,194.07749 177.159067,198.238964 173.446135,202.44879 L266.227548,261.492727 C269.14508,245.662364 271.177049,230.602404 271.666524,217.602229 C272.181762,204.366743 269.261009,193.98401 264.147275,186.218718 C257.333258,175.858549 246.593774,170.130478 234.942964,168.422049 C215.634435,165.617648 193.852765,173.779424 183.135823,189.983708 Z" id="Path"></path>
                <path d="M147.020887,227.027598 C113.610949,253.753223 68.807819,277.697011 39.0882702,285.533219 C37.1271472,286.045748 45.6253468,311.046828 70.9106322,338.194725 C86.854016,355.314469 109.453625,373.27231 140.319578,386.485232 C163.923901,396.587525 192.336034,403.904758 226.306293,405.941978 C226.306293,405.941978 244.304188,354.847069 257.658502,300.686658 L147.020887,227.027598 Z" id="Path"></path>
                <path d="M31.8698236,69.551507 C17.8843435,69.551507 6.56199638,80.917392 6.56199638,94.9007194 C6.56199638,108.909834 17.8843435,120.253155 31.8698236,120.253155 C45.8327627,120.253155 57.155109,108.909834 57.155109,94.9007194 C57.155109,80.917392 45.8295426,69.551507 31.8698236,69.551507 Z" id="Path" transform="translate(31.858553, 94.902331) rotate(16.000000) translate(-31.858553, -94.902331) "></path>
                <path d="M89.9340986,45.6569994 C89.9340986,53.4448551 96.2393192,59.7595943 104.012966,59.7595943 C111.789834,59.7595943 118.091834,53.4448551 118.091834,45.6569994 C118.091834,37.8433561 111.789834,31.531841 104.012966,31.531841 C96.2393192,31.531841 89.9340986,37.8433561 89.9340986,45.6569994 Z" id="Path" transform="translate(104.012966, 45.645718) rotate(16.000000) translate(-104.012966, -45.645718) "></path>
                <path d="M31.0723144,161.499354 C22.7608872,161.499354 16.0144947,168.255706 16.0144947,176.581878 C16.0144947,184.930614 22.7608872,191.686966 31.0723144,191.686966 C39.3837408,191.686966 46.1301326,184.930614 46.1301326,176.581878 C46.1301326,168.255706 39.3837408,161.499354 31.0723144,161.499354 Z" id="Path" transform="translate(31.072314, 176.593160) rotate(16.000000) translate(-31.072314, -176.593160) "></path>
            </g>
            <path d="M367.296107,12.1340308 C362.545588,4.41018706 354.046866,-0.232489662 345.087273,0.00898110408 C335.821506,0.260110411 327.63218,5.717349 322.620608,14.9705068 L239.90229,167.689472 C238.91609,167.644398 237.926667,167.618641 236.927576,167.618641 C216.265722,167.618641 196.203323,177.744313 185.819219,193.414153 C178.403382,204.595858 166.304708,216.601782 151.863004,228.182718 C151.569722,228.385553 151.292554,228.610926 151.028279,228.852396 C118.954223,254.380681 75.6935672,277.713193 46.4524193,285.41128 C42.8685819,286.357845 39.5006773,289.822144 40.0614572,295.430705 C40.9026275,303.866082 51.7927235,327.507676 74.3077312,351.654749 C74.3206219,351.667627 74.3335142,351.683725 74.3464049,351.696603 C77.4178057,354.987044 80.6986924,358.287145 84.2051808,361.558268 C98.4116154,374.813401 118.554587,389.681558 145.681529,401.423474 C146.326104,401.803389 147.006131,402.089934 147.708717,402.279891 C171.480646,412.302536 200.489747,419.900814 235.454722,421.987122 C235.622311,421.996781 235.786678,422 235.951044,422 C239.45431,422 242.609505,419.794568 243.785854,416.459052 C245.197474,412.453858 272.073031,335.836807 284.075019,270.919817 C284.084688,270.858644 284.097579,270.797471 284.107248,270.733079 C287.075516,254.64147 289.131711,239.267834 289.650594,225.909674 C290.124356,213.807161 287.96503,203.034347 283.34665,194.09993 L367.283216,39.1562145 C372.233552,30.0221821 372.239997,20.173396 367.296107,12.1340308 Z M236.927576,184.218948 C247.656528,184.218948 257.060878,187.853887 263.409942,194.450867 C264.663641,195.75159 265.79487,197.161779 266.803631,198.671776 C266.861642,198.758706 266.919653,198.845634 266.980888,198.932564 C271.428456,205.716282 273.468536,214.541232 273.04634,225.262532 C272.688601,234.467396 271.528366,244.789465 269.810573,255.71682 L195.436279,208.478707 C196.960699,206.501867 198.378764,204.531466 199.674359,202.580382 C207.067636,191.427654 221.689821,184.218948 236.927576,184.218948 Z M230.165984,404.971485 C204.592467,402.894836 182.599566,397.672629 163.826317,390.782665 C175.837973,376.326618 190.434376,356.355379 206.081435,326.660919 C208.218202,322.60421 206.65833,317.584839 202.597507,315.450237 C198.536684,313.312417 193.512222,314.873928 191.375455,318.927416 C174.929123,350.141532 159.736488,370.080574 147.705494,384.127731 C125.277504,373.792785 108.370301,361.278162 96.203946,350.035285 C95.5883766,349.465414 94.9889222,348.898763 94.389467,348.332112 C116.67565,337.002305 140.296104,323.608729 165.134804,302.996788 C168.663853,300.066943 169.147284,294.835077 166.214468,291.306385 C163.281651,287.784132 158.044478,287.297971 154.51543,290.227816 C129.202967,311.22933 105.840344,324.053034 82.3552508,335.80461 C68.7772763,320.260335 61.5677043,306.544797 58.473744,299.178331 C87.6278749,289.802827 126.183133,268.885023 156.980929,245.220892 L180.804424,261.058152 C182.219266,262.001498 183.821035,262.449024 185.400244,262.449024 C188.088123,262.449024 190.724435,261.148301 192.326203,258.746473 C194.869053,254.931235 193.831286,249.77664 190.012179,247.239587 L170.462217,234.242023 C175.470566,229.90199 180.146958,225.520101 184.394707,221.138212 L266.665047,273.392477 C265.263096,280.517473 263.68711,287.777693 261.998323,295.054011 L243.170285,282.532948 C239.351178,279.992676 234.194577,281.026172 231.651729,284.841409 C229.108881,288.656646 230.143423,293.811241 233.96253,296.351514 L257.818253,312.21775 C247.534059,352.697902 235.013188,390.679637 230.165984,404.971485 Z M352.670698,31.2520734 L272.143935,179.898232 C267.72215,176.105531 262.597778,173.137051 256.964192,171.070062 L337.236348,22.8714293 C338.751099,20.0735887 341.422864,16.7155356 345.541698,16.6028491 C348.545418,16.5416763 351.507241,18.1772388 353.134792,20.8237575 C354.939603,23.7568221 354.778459,27.362785 352.670698,31.2520734 Z" id="Shape" fill="#FFFFFF" fill-rule="nonzero"></path>
            <path d="M75.2549187,103.204472 C75.2549187,84.7357614 60.2315324,69.7060751 41.7661563,69.7060751 C23.2879369,69.7060751 8.25491874,84.7357614 8.25491874,103.204472 C8.25491874,121.676389 23.2879369,136.706075 41.7661563,136.706075 C60.2315324,136.706075 75.2549187,121.676389 75.2549187,103.204472 Z M24.8098619,103.204472 C24.8098619,93.8562308 32.4162737,86.2499582 41.7661563,86.2499582 C51.1031956,86.2499582 58.6999756,93.8562308 58.6999756,103.204472 C58.6999756,112.555919 51.1031956,120.162192 41.7661563,120.162192 C32.4162737,120.162192 24.8098619,112.555919 24.8098619,103.204472 Z" id="Shape" fill="#FFFFFF" fill-rule="nonzero" transform="translate(41.754919, 103.206075) rotate(16.000000) translate(-41.754919, -103.206075) "></path>
            <path d="M41.4013431,160.748509 C28.4438684,160.748509 17.9029623,171.285726 17.9029623,184.237182 C17.9029623,197.198348 28.4438684,207.748509 41.4013431,207.748509 C54.3588179,207.748509 64.9029623,197.201584 64.9029623,184.237182 C64.8997231,171.285726 54.3588179,160.748509 41.4013431,160.748509 Z M41.4013431,191.059189 C37.6533929,191.059189 34.6051472,187.997701 34.6051472,184.237182 C34.6051472,180.486373 37.6533929,177.43783 41.4013431,177.43783 C45.1492925,177.43783 48.1975382,180.486373 48.1975382,184.237182 C48.1975382,187.997701 45.1492925,191.059189 41.4013431,191.059189 Z" id="Shape" fill="#FFFFFF" fill-rule="nonzero" transform="translate(41.402962, 184.248509) rotate(16.000000) translate(-41.402962, -184.248509) "></path>
            <path d="M113.090397,76.4615961 C125.500282,76.4615961 135.592015,66.3703145 135.592015,53.9729165 C135.592015,41.5593469 125.500282,31.4615961 113.090397,31.4615961 C100.683749,31.4615961 90.5920156,41.5593469 90.5920156,53.9729165 C90.5887782,66.3703145 100.683749,76.4615961 113.090397,76.4615961 Z M113.090397,48.1380858 C116.292425,48.1380858 118.898728,50.754704 118.898728,53.9729165 C118.898728,57.1749582 116.292425,59.7818722 113.090397,59.7818722 C109.888368,59.7818722 107.285303,57.1749582 107.285303,53.9729165 C107.285303,50.754704 109.888368,48.1380858 113.090397,48.1380858 Z" id="Shape" fill="#FFFFFF" fill-rule="nonzero" transform="translate(113.092015, 53.961596) rotate(16.000000) translate(-113.092015, -53.961596) "></path>
            <path d="M216.210248,264.49141 L216.066409,264.396345 C212.179469,261.826331 206.952205,262.904819 204.392513,266.802455 C201.829552,270.700091 202.90508,275.941739 206.79202,278.508475 L206.932591,278.603539 C208.36118,279.547626 209.972838,280 211.561612,280 C214.301104,280 216.988291,278.662544 218.606486,276.197429 C221.169447,272.299793 220.097188,267.058146 216.210248,264.49141 Z" id="Path" fill="#FFFFFF"></path>
        </g>
    </g>
</svg>