<?xml version="1.0" encoding="UTF-8"?>
<svg width="656px" height="665px" viewBox="0 0 656 665" version="1.1" xmlns="http://www.w3.org/2000/svg" xmlns:xlink="http://www.w3.org/1999/xlink">
    <!-- Generator: Sketch 52.6 (67491) - http://www.bohemiancoding.com/sketch -->
    <title>Untitled</title>
    <desc>Created with Sketch.</desc>
    <g id="Page-1" stroke="none" stroke-width="1" fill="none" fill-rule="evenodd">
        <g id="icon" transform="translate(162.000000, 120.000000)" fill="#FFFFFF" fill-rule="nonzero">
            <path d="M98.4795224,4.56117147 C91.77446,5.86615281 89.0673393,14.6426156 88.4953243,16.9546082 C87.9233092,19.2666008 85.2905443,31.8534216 85.313886,42.3605142 C85.3427486,55.2187987 81.6106201,57.8286688 64.5948651,56.8478881 C55.5459234,56.3264492 25.1673473,56.7511714 20.7287261,57.4614814 C1.43514023,60.5484695 -5.95704558,81.1974664 7.65552827,93.9799308 C13.5883456,99.5530369 21.6751982,101.066537 41.4017196,100.298452 C49.6466639,99.9780395 263.982568,99.9286345 282.107623,100.33881 C306.858417,100.898707 320.402768,86.1690772 311.259508,68.6357224 C305.607293,57.7976004 296.726823,55.8187352 257.86525,56.7336901 C230.975942,57.3677215 229.860422,56.8060316 229.219674,42.3270317 C228.237604,20.1195405 228.147606,19.0902527 226.804814,14.7468732 C224.28584,6.59939032 217.995501,2.05887409 206.822989,0.322475407 L98.4795224,4.56117147 Z M197.424606,52.4470072 C195.006248,56.4692315 193.047397,56.8500513 173.178437,57.1594077 C165.707283,57.2745385 131.972972,57.6173835 129.327482,57.6827184 C117.869963,57.9645146 115.137985,55.0953321 115.103046,42.7515235 C115.077373,33.5135848 117.879339,30.8309922 127.430734,30.9492966 C128.912837,30.968566 189.376974,29.6194794 189.609124,29.608025 C190.730041,29.5518139 194.617161,30.8994548 195.58275,31.6787977 C199.440852,34.7928686 200.546541,47.2554157 197.424606,52.4470072 Z M21.253,126.326 C21.746,129.182 46.647,384.879 46.857,388.179 C48.32,411.11 63.027,426.817 84.904,428.814 C91.755,429.439 141.308,429.078 143.611,428.386 C148.743,426.844 149.844,422.834 147.224,415.22 C146.8,413.987 145.532,408.479 144.406,402.979 L142.359,392.979 L142.174,381.447 C141.968,368.575 142.283,364.247 144.064,355.452 C144.702,352.302 145.638,346.948 146.144,343.552 L147.064,337.379 C147.233333,216.602333 148.162667,154.551667 149.852,151.227 C155.377,140.352 170.741,138.001 174.16,151.504 C176.439333,160.506 176.812333,182.797667 175.279,218.379 C175.494,287.947 175.366,284.159 177.579,286.479 C179.928,288.941 201.719,275.644 203.479,274.567 C211.117,269.894 212.484,267.232 212.919,256.179 C213.092,251.779 219.493,168.179 219.689,163.779 C220.346,148.998 224.664,142.804 234.005,143.24 C243.569,143.687 248.208,151.641 246.698,165.007 C246.327,168.292 242.385,241.069 242.24,245.579 C241.774,260.135 242.504,260.949 256.079,261.002 C263.369,261.03 265.695,261.199 271.354,262.107 C288.53,264.865 291.261,261.752 292.465,238.037 C293.085,225.84 302.022,142.479 302.469,139.912 C305.514,122.448 303.951,115.29 296.679,113.396 C293.962,112.688 30.156,112.512 27.166,113.216 C21.394,114.575 19.824,118.055 21.253,126.326 Z M95.895,144.881 C102.476,148.232 105.021,156.582 106.098,178.353 C107.005,196.681 108.123,215.986 108.475,219.379 C109.394,228.239 109.693,232.429 110.087,241.979 C110.319,247.589 110.764,255.239 111.077,258.979 C111.391,262.719 111.927,270.819 112.27,276.979 C112.613,283.139 113.165,291.329 113.498,295.179 C113.831,299.029 114.275,306.949 114.484,312.779 C114.899,324.328 115.305,329.696 116.481,339.179 C117.944,350.986 118.758,367.165 118.096,371.288 C115.282,388.803 94.413,387.958 90.683,370.179 C90.284,368.275 89.963,362.517 89.679,352.179 C89.107,331.364 88.605,322.297 87.685,316.179 C86.673,309.448 85.551,292.943 84.464,268.779 C84.232,263.609 83.692,255.904 83.264,251.656 C82.837,247.409 82.301,238.859 82.073,232.656 C81.668,221.652 81.312,216.951 79.705,201.379 C78.153,186.343 77.471,156.416 78.596,152.706 C80.857,145.253 89.208,141.475 95.895,144.881 Z M225.479,308.179 L226.679,318.154 C228.818,322.388 232.155,322.961 240.101,320.46 C253.621,316.205 267.94,318.052 283.956,326.117 C294.102,331.227 305.904,345.152 309.432,356.179 C313.219,368.01 312.982,371.459 308.119,375.356 C301.865,380.367 301.968,381.485 309.825,393.766 C326.48,419.799 328.841,420.867 338.51,406.746 C355.691,381.654 356.015,380.561 347.957,374.879 C345.177,372.919 344.231,370.957 343.271,365.157 C340.586,348.942 333.093,332.148 323.47,320.779 C303.379,297.041 274.235,285.08 244.692,288.447 C228.687,290.271 225.479,293.565 225.479,308.179 Z M163.205,357.979 C154.409,371.169 154.159,373.102 160.616,377.99 C164.315,380.79 165.492,383.115 166.483,389.579 C170.275,414.315 186.93,439.675 207.527,452.074 C219.014,458.989 230.410044,463.675578 243.883,464.64 C257.355956,465.604422 257.355956,465.604422 276.415,462.103 C283.43108,460.814045 285.255,456.793 285.269,445.579 C285.285,432.01 282.548,429.698 270.332,432.967 C238.181,441.571 205.993,422.974 197.82,391.071 C196.509,385.953 197.435,382.181 200.75,379.131 C207.057,373.329 207.16,372.262 202.172,364.465 C185.723,338.753 183.47,336.328 178.279,338.74 C175.445,340.057 173.507,342.53 163.205,357.979 Z" id="path"></path>
        </g>
        <path d="M328,645 C376.835936,645 423.017222,633.468033 464.042899,612.941597 C493.871438,598.017442 580.628858,645 618.873855,645 C628.864237,645 575.063877,520.5666 587.427184,501.013617 C618.171265,452.390826 636,394.557895 636,332.5 C636,159.911016 498.103703,20 328,20 C157.896297,20 20,159.911016 20,332.5 C20,505.088984 157.896297,645 328,645 Z" id="Oval" stroke="#FFFFFF" stroke-width="40"></path>
    </g>
</svg>