<?xml version="1.0" encoding="UTF-8"?>
<svg width="656px" height="665px" viewBox="0 0 656 665" version="1.1" xmlns="http://www.w3.org/2000/svg" xmlns:xlink="http://www.w3.org/1999/xlink">
    <!-- Generator: Sketch 63.1 (92452) - https://sketch.com -->
    <title>Untitled 3</title>
    <desc>Created with Sketch.</desc>
    <g id="Page-1" stroke="none" stroke-width="1" fill="none" fill-rule="evenodd">
        <g id="auto-recover-with-border" transform="translate(20.000000, 20.000000)">
            <path d="M308,625 C356.835936,625 403.017222,613.468033 444.042899,592.941597 C473.871438,578.017442 560.628858,625 598.873855,625 C608.864237,625 555.063877,500.5666 567.427184,481.013617 C598.171265,432.390826 616,374.557895 616,312.5 C616,139.911016 478.103703,0 308,0 C137.896297,0 0,139.911016 0,312.5 C0,485.088984 137.896297,625 308,625 Z" id="Oval" stroke="#FFFFFF" stroke-width="40"></path>
            <path d="M423.508522,243.450106 C429.355279,244.605332 430.945613,247.563527 429.498105,254.594341 C429.003713,256.997823 404.27721,470.053248 403.576328,477.035985 L403.562492,477.184076 C402.080544,496.676712 387.183065,510.028543 365.022723,511.726105 C358.336275,512.237999 311.494549,511.971803 305.997637,511.425537 L305.619424,511.457972 C298.652599,511.982114 253.530342,512.227788 246.977277,511.726105 C225.038538,510.045519 210.218132,496.942584 208.485985,477.767007 L208.437508,477.184076 C208.224788,474.378891 183.00128,257.022101 182.501895,254.594341 C181.054387,247.563527 182.644721,244.605332 188.491478,243.450106 C191.411495,242.873145 295.780801,242.849277 305.7355,243.38764 L305.992817,243.404066 C314.108022,242.848852 420.559116,242.867339 423.508522,243.450106 Z M314.179718,277.408858 C308.628255,274.119894 301.21189,276.831864 298.816869,283.025752 C297.625086,286.109013 296.410688,311.559671 296.841611,324.418458 C297.287617,337.735614 297.311095,341.748236 296.997338,351.115466 C296.820214,356.395795 296.766949,363.687181 296.878877,367.31854 C296.991606,370.950807 296.992651,377.524966 296.881153,381.92844 C296.36231,402.509945 296.33464,416.590488 296.800637,422.365674 C297.224336,427.614918 297.110681,435.343255 296.350099,453.050641 C295.972269,461.845206 295.901991,466.753219 296.130855,468.39354 C298.271588,483.710645 316.185764,485.667164 319.66253,470.962749 C320.480601,467.501332 320.753788,453.715873 320.205105,443.604022 C319.76359,435.482454 319.737219,430.900532 320.075176,421.069965 C320.246203,416.107468 320.340742,409.356459 320.285836,406.067763 C320.230929,402.779066 320.248749,395.792395 320.324288,390.541749 C320.399826,385.291103 320.426002,378.3818 320.38083,375.187629 C320.336519,371.993517 320.413944,365.471699 320.551929,360.694632 C320.78763,352.562606 320.782459,348.987243 320.52468,341.409905 C320.428871,338.595159 320.613859,323.025662 320.919372,307.842057 L320.94806,306.434764 C321.331461,287.885681 319.643242,280.64483 314.179718,277.408858 Z M244.068662,277.071482 C238.425721,274.180723 231.378584,277.387208 229.4706,283.712761 C228.521249,286.861533 229.096767,312.261346 230.406449,325.022786 C231.762544,338.239142 232.062961,342.229002 232.404727,351.568379 C232.597129,356.833024 233.049442,364.089629 233.409773,367.694167 C233.770948,371.299554 234.226637,377.838985 234.422414,382.226897 C235.339698,402.735504 236.286517,416.743721 237.140511,422.456494 C237.916869,427.648998 238.34049,435.344393 238.823182,453.010618 C239.062841,461.784744 239.333722,466.671707 239.670425,468.287681 C242.81805,483.377174 260.428719,484.094348 262.803362,469.228917 C263.362002,465.729621 262.675094,451.998089 261.440516,441.977184 C260.448128,433.928719 260.105518,429.372759 259.755313,419.570827 C259.578944,414.622756 259.204267,407.900848 258.923259,404.633255 C258.642252,401.365661 258.176437,394.414597 257.88699,389.186447 C257.597544,383.958297 257.145231,377.083619 256.880257,373.909385 C256.616126,370.735151 256.240605,364.242399 256.044828,359.481048 C255.712344,351.375718 255.460028,347.819558 254.684513,340.299848 C254.387472,337.420122 253.444028,321.035473 252.678641,305.480028 C251.769795,287.002422 249.622153,279.915562 244.068662,277.071482 Z M384.239011,277.99044 C379.195793,274.146076 371.72417,276.079111 368.761788,281.993793 C367.287564,284.938113 363.480198,310.13116 362.569358,322.967508 C361.625778,336.261394 361.233922,340.255567 359.961771,349.54172 C359.244404,354.776318 358.43934,362.024288 358.172646,365.648303 C357.906635,369.273304 357.228343,375.813376 356.665218,380.18245 C354.035435,400.6034 352.553669,414.607855 352.408782,420.401061 C352.277227,425.666696 351.368454,433.343117 348.801246,450.879969 C347.52614,459.589826 346.950851,464.465064 347.003279,466.120457 C347.496365,481.578664 364.664964,485.372444 369.555666,471.103059 C370.706589,467.74401 372.395934,454.058425 372.908749,443.942582 C373.319825,435.817723 373.767702,431.256913 375.111195,421.512328 C375.789807,416.59328 376.579057,409.887133 376.865635,406.60988 C377.152214,403.332625 377.891423,396.384131 378.507218,391.168585 C379.123012,385.953038 379.862329,379.08237 380.14858,375.900154 C380.435659,372.718086 381.184632,366.238172 381.812043,361.500182 C382.880874,353.434759 383.2453,349.877459 383.778303,342.312947 C383.982369,339.416055 385.876543,323.064538 387.802807,307.563379 C390.091247,289.150312 389.202433,281.77302 384.239011,277.99044 Z M349.452495,118.810308 C351.275909,122.210443 351.517749,123.05315 355.935482,141.390409 C358.816163,153.345993 359.837231,153.633217 382.152851,148.751868 C414.404558,141.698278 422.129151,141.908728 428.597991,150.020549 C439.062445,163.143532 430.157228,177.604375 409.431059,181.145104 C394.253218,183.737852 215.563359,218.479157 208.741243,220.080847 C192.419164,223.914221 185.431649,223.962882 179.582114,220.281634 C166.161398,211.839154 168.978088,193.44418 184.563414,187.749522 C188.148904,186.43932 213.407546,181.167402 221.036408,180.136711 C235.381866,178.198802 238.07049,175.420867 235.962609,164.716088 C234.240365,155.968683 234.395551,145.059094 234.497774,143.040866 C234.598234,141.057436 235.406118,133.540067 240.53922,131.219456 L240.813396,131.102175 L330.455464,110.031446 C340.051702,109.668877 346.031972,112.432216 349.452495,118.810308 Z M321.548065,137.046461 C321.356343,137.090182 271.18179,147.113624 269.944219,147.31564 C261.969563,148.622438 260.02931,151.273526 261.407735,158.979301 C263.250126,169.275727 265.947617,171.268191 275.451491,169.346994 C277.645855,168.903174 305.699578,163.652903 311.906891,162.457408 C328.414298,159.275431 329.990277,158.669363 331.414156,154.95673 C333.252407,150.164664 330.500532,139.926709 326.828891,137.895587 C325.909974,137.387274 322.473644,136.834602 321.548065,137.046461 Z" id="path" fill="#FFFFFF" fill-rule="nonzero"></path>
        </g>
    </g>
</svg>