<?xml version="1.0" encoding="UTF-8"?>
<svg width="310px" height="473px" viewBox="0 0 310 473" version="1.1" xmlns="http://www.w3.org/2000/svg" xmlns:xlink="http://www.w3.org/1999/xlink">
    <!-- Generator: Sketch 63.1 (92452) - https://sketch.com -->
    <title>Untitled 4</title>
    <desc>Created with Sketch.</desc>
    <g id="Page-1" stroke="none" stroke-width="1" fill="none" fill-rule="evenodd">
        <g id="app-main" fill="#FFFFFF" fill-rule="nonzero">
            <path d="M298.356808,157.528749 C305.240893,158.885817 307.113383,162.360872 305.409059,170.620118 C304.826953,173.44354 275.713489,423.724266 274.888257,431.927035 L274.871967,432.101001 C273.127092,454.999414 255.586512,470.684093 229.494497,472.678255 C221.621743,473.279588 166.469388,472.966882 159.997218,472.325172 L159.551902,472.363273 C151.349028,472.978994 98.2212087,473.267593 90.5055031,472.678255 C64.6744078,470.704035 47.2245743,455.311739 45.1851108,432.785783 L45.1280331,432.101001 C44.8775726,428.805691 15.1789267,173.472059 14.590941,170.620118 C12.8866172,162.360872 14.7591073,158.885817 21.6431916,157.528749 C25.0812765,156.850981 147.967717,156.822942 159.688573,157.455369 L159.991543,157.474665 C169.546542,156.822443 294.88412,156.84416 298.356808,157.528749 Z M169.157526,196.392488 C162.724406,192.528323 154.130209,195.714584 151.354821,202.991709 C149.973765,206.614196 148.566502,236.515869 149.065863,251.623504 C149.582701,267.26967 149.609908,271.984052 149.246321,282.989498 C149.041067,289.193293 148.979343,297.759855 149.109047,302.026295 C149.239679,306.293803 149.24089,314.017703 149.111684,319.191292 C148.510441,343.372255 148.478377,359.915317 149.018381,366.700514 C149.50937,372.867787 149.377665,381.947718 148.496291,402.751914 C148.058456,413.084542 147.977017,418.850908 148.242228,420.778102 C150.722942,438.773985 171.482162,441.072675 175.511092,423.796635 C176.459085,419.729857 176.775658,403.533487 176.139836,391.653194 C175.628202,382.111261 175.597643,376.728016 175.989272,365.1782 C176.187461,359.347822 176.297014,351.416143 176.233388,347.552293 C176.169761,343.688442 176.190411,335.479887 176.277947,329.310966 C176.365482,323.142045 176.395815,315.024387 176.343469,311.271594 C176.292121,307.51887 176.381842,299.856464 176.541741,294.243946 C176.814875,284.689725 176.808883,280.489075 176.510164,271.586551 C176.399139,268.27954 176.613506,249.987124 176.96754,232.148088 L177.000784,230.494677 C177.445075,208.701582 175.488741,200.194392 169.157526,196.392488 Z M86.8566707,196.26246 C80.1696707,192.85646 71.8186707,196.63446 69.5576707,204.08746 C68.4326707,207.79746 69.1146707,237.72446 70.6666707,252.76046 C72.2736707,268.33246 72.6296707,273.03346 73.0346707,284.03746 C73.2626707,290.24046 73.7986707,298.79046 74.2256707,303.03746 C74.6536707,307.28546 75.1936707,314.99046 75.4256707,320.16046 C76.5126707,344.32446 77.6346707,360.82946 78.6466707,367.56046 C79.5666707,373.67846 80.0686707,382.74546 80.6406707,403.56046 C80.9246707,413.89846 81.2456707,419.65646 81.6446707,421.56046 C85.3746707,439.33946 106.243671,440.18446 109.057671,422.66946 C109.719671,418.54646 108.905671,402.36746 107.442671,390.56046 C106.266671,381.07746 105.860671,375.70946 105.445671,364.16046 C105.236671,358.33046 104.792671,350.41046 104.459671,346.56046 C104.126671,342.71046 103.574671,334.52046 103.231671,328.36046 C102.888671,322.20046 102.352671,314.10046 102.038671,310.36046 C101.725671,306.62046 101.280671,298.97046 101.048671,293.36046 C100.654671,283.81046 100.355671,279.62046 99.4366707,270.76046 C99.0846707,267.36746 97.9666707,248.06246 97.0596707,229.73446 C95.9826707,207.96346 93.4376707,199.61346 86.8566707,196.26246 Z M252.541285,197.671663 C246.547321,193.156223 237.667149,195.42669 234.146299,202.373844 C232.394155,205.832127 227.869025,235.422896 226.786473,250.499968 C225.66501,266.114447 225.199281,270.805847 223.687304,281.712999 C222.8347,287.861353 221.877865,296.374535 221.560894,300.631161 C221.244735,304.888946 220.438571,312.570659 219.769286,317.702402 C216.643737,341.688052 214.882628,358.137137 214.710428,364.94161 C214.554072,371.12642 213.473977,380.142844 210.4228,400.740944 C208.907311,410.971202 208.223568,416.697466 208.28588,418.641826 C208.871922,436.798431 229.277142,441.254457 235.089839,424.494195 C236.457733,420.548788 238.465554,404.474234 239.075044,392.592561 C239.563616,383.049419 240.095927,377.69247 241.692695,366.246861 C242.499239,360.46914 243.437278,352.592362 243.777882,348.743028 C244.118487,344.893693 244.997051,336.732264 245.728935,330.606287 C246.460819,324.48031 247.339512,316.410291 247.679727,312.672585 C248.020926,308.935052 248.911095,301.323999 249.656786,295.758941 C250.927112,286.28561 251.36024,282.107345 251.993725,273.222365 C252.236261,269.819788 254.487524,250.613936 256.776927,232.406881 C259.496783,210.779612 258.44041,202.114533 252.541285,197.671663 Z M211.098367,10.7618819 C213.245245,14.7692444 213.529986,15.7624489 218.731402,37.3745381 C222.123101,51.4652576 223.325302,51.8037763 249.599598,46.050672 C287.572593,37.7373898 296.667489,37.9854241 304.283868,47.5459258 C316.604662,63.0125272 306.119705,80.0559163 281.71682,84.2289806 C263.846508,87.2847643 53.4579847,128.23048 45.4256608,130.118215 C26.2081286,134.636186 17.9810649,134.693538 11.0938514,130.35486 C-4.70763034,120.404647 -1.39127417,98.7245348 16.9588091,92.0128736 C21.1803468,90.4686852 50.919742,84.2552607 59.9019245,83.0404999 C76.7921939,80.7565018 79.957766,77.4824586 77.4759573,64.8659243 C75.4481967,54.5563304 75.6309116,41.6984097 75.7512682,39.3197493 C75.8695496,36.9821003 76.8207482,28.1222122 82.8644353,25.3871661 L83.1872493,25.2489401 L188.73136,0.415212812 C200.029922,-0.0121067914 207.071061,3.24473402 211.098367,10.7618819 Z M177.621969,31.8471527 C177.395335,31.8987456 118.08405,43.7268237 116.621118,43.9652115 C107.194286,45.5072869 104.900715,48.6356811 106.53015,57.7288166 C108.708038,69.879028 111.89674,72.2302181 123.131259,69.9631258 C125.725214,69.4393989 158.88749,63.2438609 166.225148,61.8331269 C185.738535,58.0782616 187.601498,57.3630764 189.284664,52.9820153 C191.457659,47.3271773 188.20467,35.2459652 183.864428,32.8491564 C182.778177,32.2493263 178.716095,31.5971505 177.621969,31.8471527 Z" id="path"></path>
        </g>
    </g>
</svg>