
<svg width="343px" height="522px" viewBox="0 0 343 522" version="1.1" xmlns="http://www.w3.org/2000/svg" xmlns:xlink="http://www.w3.org/1999/xlink">
    <g id="Page-1" stroke="none" stroke-width="1" fill="none" fill-rule="evenodd">
        <g id="vector" transform="translate(-1.000000, 0.000000)" fill="#FFFFFF">
            <path d="M73.6719025,36.6880492 C67.641359,39.8963796 67.618516,49.0808382 67.7474565,51.4590487 C67.876397,53.8372593 69.0387017,66.6438418 72.133,76.685 C75.92,88.973 73.114,92.56 56.555,96.597 C47.749,98.744 18.822,108.032 14.785,110.009 C-2.763,118.602 -3.795,140.51 12.96,148.754 C20.263,152.349 28.439,151.432 47.079,144.93 C54.87,142.213 259.826,79.5 277.279,74.593 C301.112,67.892 309.758,49.846 295.888,35.752 C287.314,27.04 278.243,27.744 241.347,39.981 C215.818,48.449 214.587,48.238 209.741,34.579 C202.309,13.629 201.922,12.671 199.368,8.91 C194.577,1.855 187.234,-0.648 176.042,0.958 M182.087,53.179 C180.871,57.712 179.093,58.618 160.079,64.392 C152.929,66.562 120.596,76.19 118.071,76.982 C107.135,80.411 103.718,78.406 100.282,66.55 C97.711,57.677 99.665,54.326 108.879,51.807 C110.309,51.417 168.059,33.454 168.279,33.379 C169.341,33.016 173.449,33.24 174.592,33.723 C179.159,35.653 183.657,47.328 182.087,53.179 Z M11.253,182.326 C11.746,185.182 36.647,440.879 36.857,444.179 C38.32,467.11 53.027,482.817 74.904,484.814 C81.755,485.439 131.308,485.078 133.611,484.386 C138.743,482.844 139.844,478.834 137.224,471.22 C136.8,469.987 135.532,464.479 134.406,458.979 L132.359,448.979 L132.174,437.447 C131.968,424.575 132.283,420.247 134.064,411.452 C134.702,408.302 135.638,402.948 136.144,399.552 L137.064,393.379 C137.233333,272.602333 138.162667,210.551667 139.852,207.227 C145.377,196.352 160.741,194.001 164.16,207.504 C166.439333,216.506 166.812333,238.797667 165.279,274.379 C165.494,343.947 165.366,340.159 167.579,342.479 C169.928,344.941 191.719,331.644 193.479,330.567 C201.117,325.894 202.484,323.232 202.919,312.179 C203.092,307.779 209.493,224.179 209.689,219.779 C210.346,204.998 214.664,198.804 224.005,199.24 C233.569,199.687 238.208,207.641 236.698,221.007 C236.327,224.292 232.385,297.069 232.24,301.579 C231.774,316.135 232.504,316.949 246.079,317.002 C253.369,317.03 255.695,317.199 261.354,318.107 C278.53,320.865 281.261,317.752 282.465,294.037 C283.085,281.84 292.022,198.479 292.469,195.912 C295.514,178.448 293.951,171.29 286.679,169.396 C283.962,168.688 20.156,168.512 17.166,169.216 C11.394,170.575 9.824,174.055 11.253,182.326 Z M85.895,200.881 C92.476,204.232 95.021,212.582 96.098,234.353 C97.005,252.681 98.123,271.986 98.475,275.379 C99.394,284.239 99.693,288.429 100.087,297.979 C100.319,303.589 100.764,311.239 101.077,314.979 C101.391,318.719 101.927,326.819 102.27,332.979 C102.613,339.139 103.165,347.329 103.498,351.179 C103.831,355.029 104.275,362.949 104.484,368.779 C104.899,380.328 105.305,385.696 106.481,395.179 C107.944,406.986 108.758,423.165 108.096,427.288 C105.282,444.803 84.413,443.958 80.683,426.179 C80.284,424.275 79.963,418.517 79.679,408.179 C79.107,387.364 78.605,378.297 77.685,372.179 C76.673,365.448 75.551,348.943 74.464,324.779 C74.232,319.609 73.692,311.904 73.264,307.656 C72.837,303.409 72.301,294.859 72.073,288.656 C71.668,277.652 71.312,272.951 69.705,257.379 C68.153,242.343 67.471,212.416 68.596,208.706 C70.857,201.253 79.208,197.475 85.895,200.881 M215.479,364.179 L216.679,374.154 C218.818,378.388 222.155,378.961 230.101,376.46 C243.621,372.205 257.94,374.052 273.956,382.117 C284.102,387.227 295.904,401.152 299.432,412.179 C303.219,424.01 302.982,427.459 298.119,431.356 C291.865,436.367 291.968,437.485 299.825,449.766 C316.48,475.799 318.841,476.867 328.51,462.746 C345.691,437.654 346.015,436.561 337.957,430.879 C335.177,428.919 334.231,426.957 333.271,421.157 C330.586,404.942 323.093,388.148 313.47,376.779 C293.379,353.041 264.235,341.08 234.692,344.447 C218.687,346.271 215.479,349.565 215.479,364.179 Z M153.205,413.979 C144.409,427.169 144.159,429.102 150.616,433.99 C154.315,436.79 155.492,439.115 156.483,445.579 C160.275,470.315 176.93,495.675 197.527,508.074 C209.014,514.989 220.410044,519.675578 233.883,520.64 C247.355956,521.604422 247.355956,521.604422 266.415,518.103 C273.43108,516.814045 275.255,512.793 275.269,501.579 C275.285,488.01 272.548,485.698 260.332,488.967 C228.181,497.571 195.993,478.974 187.82,447.071 C186.509,441.953 187.435,438.181 190.75,435.131 C197.057,429.329 197.16,428.262 192.172,420.465 C175.723,394.753 173.47,392.328 168.279,394.74 C165.445,396.057 163.507,398.53 153.205,413.979 Z" id="path"></path>
        </g>
    </g>
</svg>