<?xml version="1.0" encoding="UTF-8"?>
<svg width="887px" height="899px" viewBox="0 0 887 899" version="1.1" xmlns="http://www.w3.org/2000/svg" xmlns:xlink="http://www.w3.org/1999/xlink">
    <!-- Generator: Sketch 63.1 (92452) - https://sketch.com -->
    <title>qr</title>
    <desc>Created with Sketch.</desc>
    <g id="Page-1" stroke="none" stroke-width="1" fill="none" fill-rule="evenodd">
        <path d="M443.5,879 C510.649412,879 574.14868,863.150465 630.558986,834.938931 C671.573227,814.427172 790.86468,879 843.451551,879 C857.188326,879 783.212831,707.978735 800.212378,681.105115 C842.485489,614.277951 867,534.792371 867,449.5 C867,212.2937 677.392592,20 443.5,20 C209.607408,20 20,212.2937 20,449.5 C20,686.7063 209.607408,879 443.5,879 Z" id="Oval" stroke="#FFFFFF" stroke-width="40"></path>
        <g id="Qr-Item" transform="translate(179.000000, 206.000000)" fill="#FFFFFF">
            <g>
                <path d="M227,0 L227,226 L0,226 L0,28 C-1.8937905e-15,12.536027 12.536027,2.84068575e-15 28,0 L227,0 Z M186,41 L69,41 C53.536027,41 41,53.536027 41,69 L41,69 L41,185 L186,185 L186,41 Z" id="external-square"></path>
                <path d="M98,83 L145,83 L145,83 L145,143 L84,143 L84,97 C84,89.2680135 90.2680135,83 98,83 Z" id="internal-square"></path>
            </g>
        </g>
        <g id="Qr-Item" transform="translate(292.500000, 591.000000) rotate(270.000000) translate(-292.500000, -591.000000) translate(179.000000, 478.000000)" fill="#FFFFFF">
            <g>
                <path d="M227,0 L227,226 L0,226 L0,28 C-1.8937905e-15,12.536027 12.536027,2.84068575e-15 28,0 L227,0 Z M186,41 L69,41 C53.536027,41 41,53.536027 41,69 L41,69 L41,185 L186,185 L186,41 Z" id="external-square"></path>
                <path d="M98,83 L145,83 L145,83 L145,143 L84,143 L84,97 C84,89.2680135 90.2680135,83 98,83 Z" id="internal-square"></path>
            </g>
        </g>
        <g id="Qr-Item" transform="translate(576.500000, 319.000000) rotate(90.000000) translate(-576.500000, -319.000000) translate(463.000000, 206.000000)" fill="#FFFFFF">
            <g>
                <path d="M227,0 L227,226 L0,226 L0,28 C-1.8937905e-15,12.536027 12.536027,2.84068575e-15 28,0 L227,0 Z M186,41 L69,41 C53.536027,41 41,53.536027 41,69 L41,69 L41,185 L186,185 L186,41 Z" id="external-square"></path>
                <path d="M98,83 L145,83 L145,83 L145,143 L84,143 L84,97 C84,89.2680135 90.2680135,83 98,83 Z" id="internal-square"></path>
            </g>
        </g>
        <path d="M503.819,621 L503.819383,646.818584 C503.819383,655.549943 510.813284,662.647789 519.504513,662.815548 L519.819383,662.818584 L546,662.818 L546,704 L491,704 C475.536027,704 463,691.463973 463,676 L463,621 L503.819,621 Z M689,621 L689,676 C689,691.463973 676.463973,704 661,704 L606,704 L606,662.818 L632.180617,662.818584 C640.911976,662.818584 648.009821,655.824683 648.17758,647.133455 L648.180617,646.818584 L648.18,621 L689,621 Z M593.361233,560.367257 C601.09322,560.367257 607.361233,566.63527 607.361233,574.367257 L607.361233,606.632743 C607.361233,614.36473 601.09322,620.632743 593.361233,620.632743 L560.629956,620.632743 C552.897969,620.632743 546.629956,614.36473 546.629956,606.632743 L546.629956,574.367257 C546.629956,566.63527 552.897969,560.367257 560.629956,560.367257 L593.361233,560.367257 Z M661,477 C676.463973,477 689,489.536027 689,505 L689,561 L648.18,561 L648.180617,534.181416 C648.180617,525.34486 641.017173,518.181416 632.180617,518.181416 L606,518.181 L606,477 L661,477 Z M546,477 L546,518.181 L519.819383,518.181416 C511.088024,518.181416 503.990179,525.175317 503.82242,533.866545 L503.819383,534.181416 L503.819,561 L463,561 L463,505 C463,489.536027 475.536027,477 491,477 L546,477 Z" id="Combined-Shape" fill="#FFFFFF"></path>
    </g>
</svg>